<?xml version="1.0" encoding="UTF-8"?>
<!DOCTYPE svg PUBLIC "-//W3C//DTD SVG 1.1//EN" "http://www.w3.org/Graphics/SVG/1.1/DTD/svg11.dtd">
<svg xmlns="http://www.w3.org/2000/svg" version="1.1" width="144px" height="144px" style="shape-rendering:geometricPrecision; text-rendering:geometricPrecision; image-rendering:optimizeQuality; fill-rule:evenodd; clip-rule:evenodd" xmlns:xlink="http://www.w3.org/1999/xlink">
<g><path style="opacity:1" fill="#065859" d="M -0.5,-0.5 C 47.5,-0.5 95.5,-0.5 143.5,-0.5C 143.5,47.5 143.5,95.5 143.5,143.5C 95.5,143.5 47.5,143.5 -0.5,143.5C -0.5,95.5 -0.5,47.5 -0.5,-0.5 Z"/></g>
<g><path style="opacity:1" fill="#f6f8f8" d="M 68.5,12.5 C 69.552,12.3505 70.552,12.5172 71.5,13C 92.3132,33.0659 112.647,53.3992 132.5,74C 112.667,95.1667 92.1667,115.667 71,135.5C 68.1776,133.347 65.3442,131.181 62.5,129C 44.6267,110.294 26.6267,91.7945 8.5,73.5C 28.5212,53.1458 48.5212,32.8125 68.5,12.5 Z"/></g>
<g><path style="opacity:1" fill="#095b58" d="M 65.5,27.5 C 66.4912,34.3134 66.8245,41.3134 66.5,48.5C 59.4921,48.6663 52.4921,48.4996 45.5,48C 52.3693,41.2982 59.036,34.4649 65.5,27.5 Z"/></g>
<g><path style="opacity:1" fill="#0f5c58" d="M 76.5,28.5 C 83.2982,34.7973 89.9648,41.2973 96.5,48C 89.5079,48.4996 82.5079,48.6663 75.5,48.5C 75.176,41.6457 75.5093,34.979 76.5,28.5 Z"/></g>
<g><path style="opacity:1" fill="#7a9d97" d="M 76.5,28.5 C 75.5093,34.979 75.176,41.6457 75.5,48.5C 74.1812,41.656 74.1812,34.656 75.5,27.5C 76.1067,27.6236 76.44,27.9569 76.5,28.5 Z"/></g>
<g><path style="opacity:1" fill="#0d5777" d="M 52.5,57.5 C 62.5,57.5 72.5,57.5 82.5,57.5C 74.9066,59.0228 67.2399,60.0228 59.5,60.5C 58.5,60.5 57.5,60.5 56.5,60.5C 55.4097,59.1429 54.0764,58.1429 52.5,57.5 Z"/></g>
<g><path style="opacity:1" fill="#1e6461" d="M 98.5,57.5 C 100.857,57.3367 103.19,57.5034 105.5,58C 110.315,61.648 114.648,65.8147 118.5,70.5C 111.866,71.4967 105.2,71.83 98.5,71.5C 98.5,66.8333 98.5,62.1667 98.5,57.5 Z"/></g>
<g><path style="opacity:1" fill="#035462" d="M 82.5,57.5 C 84.8333,57.5 87.1667,57.5 89.5,57.5C 89.6664,66.5062 89.4998,75.5062 89,84.5C 87.8068,82.5029 86.3068,80.8362 84.5,79.5C 84.5,73.1667 84.5,66.8333 84.5,60.5C 76.1667,60.5 67.8333,60.5 59.5,60.5C 67.2399,60.0228 74.9066,59.0228 82.5,57.5 Z"/></g>
<g><path style="opacity:1" fill="#145f5d" d="M 34.5,57.5 C 37.1667,57.5 39.8333,57.5 42.5,57.5C 42.5,62.1667 42.5,66.8333 42.5,71.5C 35.8002,71.83 29.1335,71.4967 22.5,70.5C 27.2297,66.7731 31.2297,62.4397 34.5,57.5 Z"/></g>
<g><path style="opacity:1" fill="#b3cdc4" d="M 42.5,79.5 C 36.642,79.1778 30.9753,79.5111 25.5,80.5C 24.9569,80.44 24.6236,80.1067 24.5,79.5C 30.6544,78.1834 36.6544,78.1834 42.5,79.5 Z"/></g>
<g><path style="opacity:1" fill="#b7d4c6" d="M 99.5,79.5 C 105.346,78.1834 111.346,78.1834 117.5,79.5C 117.376,80.1067 117.043,80.44 116.5,80.5C 111.025,79.5111 105.358,79.1778 99.5,79.5 Z"/></g>
<g><path style="opacity:1" fill="#0d605c" d="M 42.5,79.5 C 42.5,83.5 42.5,87.5 42.5,91.5C 40.1432,91.6633 37.8098,91.4966 35.5,91C 31.9626,87.6309 28.6293,84.1309 25.5,80.5C 30.9753,79.5111 36.642,79.1778 42.5,79.5 Z"/></g>
<g><path style="opacity:1" fill="#075d5b" d="M 99.5,79.5 C 105.358,79.1778 111.025,79.5111 116.5,80.5C 112.702,83.7961 109.036,87.2961 105.5,91C 103.527,91.4955 101.527,91.6621 99.5,91.5C 99.5,87.5 99.5,83.5 99.5,79.5 Z"/></g>
<g><path style="opacity:1" fill="#014b55" d="M 52.5,57.5 C 54.0764,58.1429 55.4097,59.1429 56.5,60.5C 56.1667,60.5 55.8333,60.5 55.5,60.5C 54.325,60.281 53.325,60.6143 52.5,61.5C 55.129,70.1805 55.129,78.8471 52.5,87.5C 61.6684,87.0301 70.6684,87.5301 79.5,89C 71.4866,90.1356 63.4866,90.9689 55.5,91.5C 54.1667,91.5 52.8333,91.5 51.5,91.5C 51.1719,79.9877 51.5052,68.6544 52.5,57.5 Z"/></g>
<g><path style="opacity:1" fill="#135356" d="M 89.5,57.5 C 90.4948,68.6544 90.8281,79.9877 90.5,91.5C 78.8333,91.5 67.1667,91.5 55.5,91.5C 63.4866,90.9689 71.4866,90.1356 79.5,89C 70.6684,87.5301 61.6684,87.0301 52.5,87.5C 55.129,78.8471 55.129,70.1805 52.5,61.5C 53.325,60.6143 54.325,60.281 55.5,60.5C 55.5,69.1667 55.5,77.8333 55.5,86.5C 65.1667,86.5 74.8333,86.5 84.5,86.5C 84.5,84.1667 84.5,81.8333 84.5,79.5C 86.3068,80.8362 87.8068,82.5029 89,84.5C 89.4998,75.5062 89.6664,66.5062 89.5,57.5 Z"/></g>
<g><path style="opacity:1" fill="#899f7c" d="M 55.5,60.5 C 55.8333,60.5 56.1667,60.5 56.5,60.5C 57.5,60.5 58.5,60.5 59.5,60.5C 67.8333,60.5 76.1667,60.5 84.5,60.5C 84.5,66.8333 84.5,73.1667 84.5,79.5C 84.5,81.8333 84.5,84.1667 84.5,86.5C 74.8333,86.5 65.1667,86.5 55.5,86.5C 55.5,77.8333 55.5,69.1667 55.5,60.5 Z"/></g>
<g><path style="opacity:1" fill="#d0c193" d="M 56.5,64.5 C 57.1515,65.0906 57.8182,65.7573 58.5,66.5C 60.4347,66.8734 62.268,66.2068 64,64.5C 68.8008,64.8008 73.3008,65.9674 77.5,68C 78.991,70.0969 79.991,72.4303 80.5,75C 80.3733,78.0972 79.7067,81.2639 78.5,84.5C 80.1667,84.5 81.8333,84.5 83.5,84.5C 74.6822,85.4933 65.6822,85.8266 56.5,85.5C 56.5,78.5 56.5,71.5 56.5,64.5 Z"/></g>
<g><path style="opacity:1" fill="#d7c389" d="M 83.5,84.5 C 81.8333,84.5 80.1667,84.5 78.5,84.5C 79.7067,81.2639 80.3733,78.0972 80.5,75C 79.991,72.4303 78.991,70.0969 77.5,68C 73.3008,65.9674 68.8008,64.8008 64,64.5C 62.268,66.2068 60.4347,66.8734 58.5,66.5C 57.8182,65.7573 57.1515,65.0906 56.5,64.5C 56.5,63.5 56.5,62.5 56.5,61.5C 65.5,61.5 74.5,61.5 83.5,61.5C 83.5,69.1667 83.5,76.8333 83.5,84.5 Z"/></g>
<g><path style="opacity:1" fill="#6a907d" d="M 95.5,101.5 C 89.021,100.509 82.3543,100.176 75.5,100.5C 75.5,107.167 75.5,113.833 75.5,120.5C 74.5088,113.687 74.1755,106.687 74.5,99.5C 81.8635,99.1694 89.1968,99.5027 96.5,100.5C 96.3764,101.107 96.0431,101.44 95.5,101.5 Z"/></g>
<g><path style="opacity:1" fill="#055a57" d="M 95.5,101.5 C 88.8333,107.833 82.1667,114.167 75.5,120.5C 75.5,113.833 75.5,107.167 75.5,100.5C 82.3543,100.176 89.021,100.509 95.5,101.5 Z"/></g>
<g><path style="opacity:1" fill="#095c5a" d="M 63.5,118.5 C 57.5,113.167 51.8333,107.5 46.5,101.5C 52.6446,100.51 58.9779,100.177 65.5,100.5C 66.12,106.926 65.4533,112.926 63.5,118.5 Z"/></g>
<g><path style="opacity:1" fill="#417573" d="M 63.5,118.5 C 65.4533,112.926 66.12,106.926 65.5,100.5C 58.9779,100.177 52.6446,100.51 46.5,101.5C 45.9569,101.44 45.6236,101.107 45.5,100.5C 52.4684,99.503 59.4684,99.1697 66.5,99.5C 66.6663,106.841 66.4997,114.174 66,121.5C 64.955,120.627 64.1217,119.627 63.5,118.5 Z"/></g>
</svg>
